<?xml version="1.0" encoding="utf-8"?>
<!-- Generator: Adobe Illustrator 16.0.0, SVG Export Plug-In . SVG Version: 6.00 Build 0)  -->
<!DOCTYPE svg PUBLIC "-//W3C//DTD SVG 1.1//EN" "http://www.w3.org/Graphics/SVG/1.1/DTD/svg11.dtd">
<svg version="1.1" id="Layer_1" xmlns="http://www.w3.org/2000/svg" xmlns:xlink="http://www.w3.org/1999/xlink" x="0px" y="0px"
	 width="21.512px" height="21.513px" viewBox="0 0 21.512 21.513" enable-background="new 0 0 21.512 21.513" xml:space="preserve">
<g>
	<g>
		<g>
			<rect x="5.709" y="6.027" fill="#5B5B5B" width="10.094" height="1.124"/>
			<path fill="#5B5B5B" d="M7.018,8.069v8.477h7.477V8.069H7.018z M9.633,15.454H8.887v-4.988h0.746V15.454z M11.129,15.454h-0.746
				v-4.988h0.746V15.454z M12.623,15.454h-0.746v-4.988h0.746V15.454z"/>
			<rect x="9.426" y="4.966" fill="#5B5B5B" width="2.656" height="1.122"/>
		</g>
	</g>
	<g>
		<g>
			<g>
				<path fill="#B2B2B2" d="M19.17,0.579c0.972,0,1.763,0.842,1.763,1.877v16.601c0,1.035-0.791,1.877-1.763,1.877H2.342
					c-0.972,0-1.763-0.842-1.763-1.877V2.456c0-1.035,0.791-1.877,1.763-1.877H19.17 M19.17,0H2.342C1.049,0,0,1.1,0,2.456v16.601
					c0,1.357,1.049,2.456,2.342,2.456H19.17c1.293,0,2.342-1.099,2.342-2.456V2.456C21.512,1.1,20.463,0,19.17,0L19.17,0z"/>
			</g>
		</g>
	</g>
</g>
</svg>
