<?xml version="1.0" encoding="utf-8"?>
<!-- Generator: Adobe Illustrator 16.0.0, SVG Export Plug-In . SVG Version: 6.00 Build 0)  -->
<!DOCTYPE svg PUBLIC "-//W3C//DTD SVG 1.1//EN" "http://www.w3.org/Graphics/SVG/1.1/DTD/svg11.dtd">
<svg version="1.1" id="Layer_1" xmlns="http://www.w3.org/2000/svg" xmlns:xlink="http://www.w3.org/1999/xlink" x="0px" y="0px"
	 width="21.512px" height="21.513px" viewBox="0 0 21.512 21.513" enable-background="new 0 0 21.512 21.513" xml:space="preserve">
<g>
	<g>
		<g>
			<g>
				<path fill="#B2B2B2" d="M19.169,0.579c0.973,0,1.764,0.842,1.764,1.877v16.601c0,1.035-0.791,1.877-1.764,1.877H2.342
					c-0.972,0-1.763-0.842-1.763-1.877V2.456c0-1.035,0.791-1.877,1.763-1.877H19.169 M19.169,0H2.342C1.049,0,0,1.1,0,2.456v16.601
					c0,1.357,1.049,2.456,2.342,2.456h16.827c1.294,0,2.343-1.099,2.343-2.456V2.456C21.512,1.1,20.463,0,19.169,0L19.169,0z"/>
			</g>
		</g>
	</g>
	<g>
		<g>
			<g>
				<g>
					<g>
						<g>
							<polygon fill="#5B5B5B" points="14.527,6.398 16.092,7.965 8.707,15.352 7.146,13.785 							"/>
						</g>
					</g>
					<g>
						<polygon fill="#5B5B5B" points="5.613,16.875 6.141,15.563 6.668,14.251 7.452,15.036 8.235,15.822 6.924,16.35 						"/>
					</g>
					<g>
						
							<rect x="15.341" y="5.1" transform="matrix(-0.7073 -0.7069 0.7069 -0.7073 23.8108 21.9444)" fill="#5B5B5B" width="2.215" height="1.886"/>
					</g>
				</g>
			</g>
		</g>
	</g>
</g>
</svg>
