<?xml version="1.0" encoding="utf-8"?>
<!-- Generator: Adobe Illustrator 16.0.0, SVG Export Plug-In . SVG Version: 6.00 Build 0)  -->
<!DOCTYPE svg PUBLIC "-//W3C//DTD SVG 1.1//EN" "http://www.w3.org/Graphics/SVG/1.1/DTD/svg11.dtd">
<svg version="1.1" id="Layer_1" xmlns="http://www.w3.org/2000/svg" xmlns:xlink="http://www.w3.org/1999/xlink" x="0px" y="0px"
	 width="21.512px" height="21.513px" viewBox="0 0 21.512 21.513" enable-background="new 0 0 21.512 21.513" xml:space="preserve">
<g>
	<g>
		<g>
			<path fill="#B2B2B2" d="M19.17,0.579c0.972,0,1.763,0.842,1.763,1.877v16.601c0,1.035-0.791,1.877-1.763,1.877H2.342
				c-0.972,0-1.763-0.842-1.763-1.877V2.456c0-1.035,0.791-1.877,1.763-1.877H19.17 M19.17,0H2.342C1.049,0,0,1.1,0,2.456v16.601
				c0,1.357,1.049,2.456,2.342,2.456H19.17c1.293,0,2.342-1.099,2.342-2.456V2.456C21.512,1.1,20.463,0,19.17,0L19.17,0z"/>
		</g>
	</g>
	<g>
		<g>
			<path fill="#5B5B5B" d="M16.561,10.419c-0.049-0.072-1.221-1.738-2.834-2.882c-0.838-0.591-1.893-0.917-2.971-0.917
				c-1.08,0-2.135,0.326-2.973,0.917C6.168,8.681,5,10.347,4.951,10.419c-0.141,0.203-0.141,0.472,0,0.674
				c0.049,0.071,1.217,1.74,2.832,2.881c0.838,0.594,1.893,0.92,2.973,0.92c1.078,0,2.133-0.326,2.971-0.92
				c1.613-1.141,2.785-2.81,2.834-2.881C16.701,10.891,16.701,10.62,16.561,10.419z M10.756,12.825
				c-1.143,0-2.068-0.928-2.068-2.068c0-1.143,0.926-2.069,2.068-2.069c1.141,0,2.068,0.927,2.068,2.069
				C12.824,11.897,11.896,12.825,10.756,12.825z"/>
			<g>
				<g>
					<path fill="#5B5B5B" d="M11.936,10.757c0,0.651-0.529,1.181-1.18,1.181c-0.654,0-1.182-0.529-1.182-1.181
						c0-0.654,0.527-1.183,1.182-1.183C11.406,9.574,11.936,10.103,11.936,10.757z"/>
				</g>
			</g>
		</g>
	</g>
</g>
</svg>
