<?xml version="1.0" encoding="utf-8"?>
<!-- Generator: Adobe Illustrator 16.0.0, SVG Export Plug-In . SVG Version: 6.00 Build 0)  -->
<!DOCTYPE svg PUBLIC "-//W3C//DTD SVG 1.1//EN" "http://www.w3.org/Graphics/SVG/1.1/DTD/svg11.dtd">
<svg version="1.1" id="Layer_1" xmlns="http://www.w3.org/2000/svg" xmlns:xlink="http://www.w3.org/1999/xlink" x="0px" y="0px"
	 width="193.22px" height="42.823px" viewBox="0 0 193.22 42.823" enable-background="new 0 0 193.22 42.823" xml:space="preserve">
<g id="COL_12_">
	<polygon fill="#5A5B5D" points="56.487,24.699 56.487,32.807 51.999,32.807 51.999,24.699 45.913,13.564 51.128,13.564 
		54.831,20.887 58.478,13.564 62.519,13.564 	"/>
	<path fill="#5A5B5D" d="M64.005,26.383l-0.031,0.701c-0.055,1.682,0.955,3.059,2.748,3.059c1.264,0,2.527-0.926,2.527-2.246
		l3.812,0.283c0,0.701-1.654,4.908-6.479,4.908c-4.264,0-7.039-2.973-7.039-7.209c0-4.207,2.494-7.602,6.928-7.602
		c1.99,0,4.039,0.898,5.215,2.523c1.18,1.629,1.488,3.646,1.461,5.582H64.005z M66.64,20.969c-1.822,0-2.525,1.348-2.666,2.973
		h5.051C68.938,22.4,68.435,20.969,66.64,20.969"/>
	<rect x="75.077" y="13.564" fill="#5A5B5D" width="4.121" height="19.242"/>
	<rect x="81.526" y="13.564" fill="#5A5B5D" width="4.123" height="19.242"/>
	<path fill="#5A5B5D" d="M94.063,33.088c-4.375,0-6.76-3.311-6.76-7.432c0-4.152,2.412-7.379,6.76-7.379
		c4.461,0,6.872,3.311,6.872,7.516C100.935,29.861,98.273,33.088,94.063,33.088 M96.056,22.289c-0.338-0.928-1.01-1.293-1.963-1.293
		c-2.217,0-2.357,2.611-2.357,4.236c0,1.627-0.027,5.104,2.328,5.104c2.329,0,2.442-2.803,2.442-4.514
		C96.505,24.699,96.449,23.354,96.056,22.289"/>
	<polygon fill="#5A5B5D" points="116.839,32.807 113.136,32.807 110.921,23.664 110.863,23.664 108.648,32.807 105.115,32.807 
		100.712,18.559 105.115,18.559 107.386,27.279 107.443,27.279 109.601,18.559 113.39,18.559 115.437,27.311 115.492,27.311 
		117.876,18.559 121.13,18.559 	"/>
	<path fill="#5A5B5D" d="M148.81,32.742c-0.223-0.896-0.242-1.867-0.242-2.789v-5.525c0-1.461,0-3.283-1.123-4.543
		c-1.07-1.178-2.818-1.332-4.217-1.332c-1.25,0-5.311,0.258-5.902,3.514l1.641,0.268c0.42-1.633,1.822-2.496,4.064-2.496
		c2.686,0,3.83,1.098,3.83,3.664v0.83h-2.062c-1.668,0-3.783,0.094-5.383,0.822c-1.525,0.709-2.512,2.184-2.512,3.762
		c0,2.836,2.389,4.105,4.754,4.105c2.293,0,3.863-0.924,4.801-2.826l0.33-0.672l0.072,0.746l0.234,2.473H148.81z M146.861,26.701
		c0,1.443-1.768,5.037-4.729,5.037c-1.52,0-3.297-0.711-3.297-2.711c0-3.467,4.508-3.467,5.99-3.467h2.035V26.701z"/>
	<path fill="#5A5B5D" d="M161.41,31.303c-0.963-0.361-2.467-0.424-3.674-0.475l-0.438-0.02c-0.293-0.014-0.613-0.02-0.947-0.027
		c-0.814-0.018-1.738-0.035-2.457-0.199c-0.779-0.178-1.23-0.693-1.23-1.416c0-0.846,0.945-1.529,1.729-1.529
		c0.27,0,0.58,0.051,0.912,0.105c0.344,0.059,0.701,0.119,1.021,0.119c1.377,0,2.584-0.363,3.492-1.051
		c1.086-0.857,1.738-2.127,1.738-3.393c0-1.219-0.482-2.443-1.318-3.363l-0.068-0.074l0.016-0.1c0.25-1.67,1.436-1.809,2.732-1.809
		h0.01l-0.023-1.352l-0.361-0.02c-0.123-0.006-0.24-0.008-0.355-0.008c-1.691,0-2.398,0.602-2.705,2.303l-0.049,0.273l-0.252-0.119
		c-0.832-0.389-1.801-0.598-2.799-0.598c-2.611,0-5.256,1.594-5.256,4.641c0,1.453,0.594,2.662,1.768,3.594l0.275,0.211
		l-0.314,0.148c-1.166,0.539-1.844,1.1-1.844,2.357c0,0.861,0.383,1.48,1.279,2.064l0.359,0.238l-0.404,0.143
		c-1.338,0.473-2.018,1.379-2.018,2.689c0,1.656,1.254,2.516,2.309,2.945c1.174,0.479,2.73,0.543,4.098,0.543
		c4.531,0,6.826-1.307,6.826-3.883C163.46,32.934,162.658,31.779,161.41,31.303 M152.972,23.221c0-1.943,1.434-3.355,3.41-3.355
		c1.896,0,3.383,1.465,3.383,3.328c0,2.023-1.359,3.383-3.383,3.383C154.31,26.576,152.972,25.26,152.972,23.221 M160.427,36.203
		c-0.936,0.443-2.566,0.639-3.764,0.639c-2.271,0-4.703-0.66-4.703-2.512c0-1.199,0.893-1.768,1.668-2.129l0.055-0.029l0.061,0.012
		c1.027,0.129,2.486,0.162,3.549,0.182c0.537,0.012,0.986,0.021,1.264,0.041c1.045,0.059,3.229,0.184,3.229,1.924
		C161.785,35.426,161.097,35.893,160.427,36.203"/>
	<path fill="#5A5B5D" d="M173.832,28.877c-0.699,1.73-2.129,2.721-3.947,2.721c-1.613,0-3.156-0.916-3.838-2.277
		c-0.564-1.133-0.613-2.219-0.613-3.322v-0.213h10.357c0.021-2.301-0.67-4.34-1.912-5.617c-1.039-1.072-2.422-1.615-4.107-1.615
		c-4.383,0-6.377,3.773-6.377,7.277c0,3.58,1.953,7.191,6.322,7.191c2.639,0,4.93-1.518,5.779-3.805L173.832,28.877z
		 M165.464,24.363c0.082-2.205,1.674-4.553,4.307-4.553c1.117,0,2.076,0.379,2.785,1.096c0.818,0.83,1.307,2.061,1.287,3.469
		l-0.002,0.207h-8.385L165.464,24.363z"/>
	<path fill="#5A5B5D" d="M187.046,25.781c-0.818-0.557-1.852-0.752-2.85-0.941l-2.115-0.371c-1.086-0.193-2.73-0.484-2.73-2.285
		c0-1.578,1.631-2.289,3.244-2.289c1.828,0,3.195,0.803,3.777,2.213l1.621-0.338c-0.877-2.791-3.727-3.217-5.369-3.217
		c-2.363,0-5.119,1.037-5.119,3.969c0,2.008,1.348,3.268,4.006,3.746l2.326,0.418c0.885,0.158,2.951,0.537,2.951,2.369
		c0,1.895-1.891,2.572-3.662,2.572c-1.875,0-4.023-0.826-4.457-2.629l-1.701,0.334c0.689,2.316,2.91,3.689,5.99,3.689
		c2.633,0,5.705-1.098,5.705-4.189C188.664,27.568,188.089,26.486,187.046,25.781"/>
	<path fill="#5A5B5D" d="M134.625,15.166c-1.316-1.092-3.01-1.24-4.49-1.24h-6.24V32.74h1.986v-7.826h4.533
		c2.031,0,3.412-0.463,4.48-1.508c1.014-0.986,1.617-2.451,1.617-3.918C136.511,17.832,135.771,16.133,134.625,15.166
		 M133.367,22.305c-0.992,0.965-2.127,1.045-3.207,1.045h-4.279v-7.83h4.449c0.932,0,1.838,0.059,2.74,0.777
		c0.906,0.711,1.428,1.877,1.428,3.191C134.498,20.562,134.085,21.59,133.367,22.305"/>
	<g>
		<path fill="#FFF100" d="M31.784,41.908c-9.236,4.344-25.902-7.691-30.248-16.932c-4.348-9.238,0.994-18.41,10.23-22.756
			C14.884,0.754,18.157,0,21.292,0c6.156,0,11.779,2.904,14.658,9.025C40.296,18.264,41.024,37.562,31.784,41.908z"/>
		<path fill="#5A5B5D" d="M10.831,9.582h5.934c1.982,0,5.326,0.34,7.135,4l8.836,18.58c-0.996,0.996-2.645,0.854-3.457-0.295
			L21.665,21.08c-1.189-1.689-3.596-1.934-5.102-0.521l-2.162,2.023c-0.926,0.865-2.375,0.84-3.271-0.057l-0.234-0.234l1.998-2.686
			c1.402-1.883,1.494-4.449,0.232-6.426L10.831,9.582z M14.265,29.01c-0.475,0.842-0.367,1.734-0.367,1.734
			c0.078,1.211,1.596,2.266,1.596,2.266l5.576-9.412c0.418-0.84-0.039-1.506-0.039-1.506c-1.189-1.875-2.84-1.283-2.84-1.283
			L14.265,29.01z"/>
	</g>
	<g>
		<path fill="#5A5B5D" d="M189.755,18.553h-0.379v-2.066h-0.713v-0.299h1.805v0.299h-0.713V18.553z M193.22,18.553h-0.363v-1.881
			l-0.752,1.881h-0.264l-0.762-1.881v1.881h-0.332v-2.365h0.521l0.727,1.795l0.711-1.795h0.514V18.553z"/>
	</g>
	<path fill="#5A5B5D" d="M40.249,40.572H39.87v-2.068h-0.713v-0.299h1.807v0.299h-0.715V40.572 M43.72,40.572h-0.365v-1.883
		l-0.754,1.883h-0.262l-0.764-1.883v1.883h-0.332v-2.367h0.521L42.493,40l0.711-1.795h0.516V40.572z"/>
</g>
</svg>
